<svg xmlns="http://www.w3.org/2000/svg" viewBox="0 0 160 110"><style>.b1{animation:float 3s ease-in-out infinite}.b2{animation:float 3s ease-in-out infinite 1.5s}.ic{transform-box:fill-box;transform-origin:center;animation:pop 2.4s ease-in-out infinite}.ic2{animation-delay:.4s}.ic3{animation-delay:.8s}.d{animation:blink 1.2s infinite}.d2{animation-delay:.2s}.d3{animation-delay:.4s}@keyframes float{50%{transform:translateY(-4px)}}@keyframes pop{0%,100%{transform:scale(1)}20%{transform:scale(1.25)}40%{transform:scale(1)}}@keyframes blink{0%,100%{opacity:.25}50%{opacity:1}}@media (prefers-reduced-motion: reduce){*{animation:none!important}}</style><g class="b1"><rect x="16" y="14" width="78" height="40" rx="14" fill="#184332"/><path d="M30 54l-6 12 18-12z" fill="#184332"/><rect x="28" y="26" width="46" height="5" rx="2.5" fill="#92ef59"/><rect x="28" y="36" width="32" height="5" rx="2.5" fill="#cfe0d6"/></g><g class="b2"><rect x="66" y="50" width="78" height="40" rx="14" fill="#e9fbdc" stroke="#184332" stroke-width="2.5"/><path d="M130 90l6 12-18-12z" fill="#e9fbdc" stroke="#184332" stroke-width="2.5" stroke-linejoin="round"/><rect x="78" y="62" width="42" height="5" rx="2.5" fill="#184332"/><rect x="78" y="72" width="54" height="5" rx="2.5" fill="#8fb39f"/></g><g class="ic"><circle cx="118" cy="22" r="10" fill="#25d366"/><path d="M114 22.5c.5 2.5 2.5 4.5 5 5l1.5-1.5 2 1-1 2.5c-4.5 0-9-4.5-9-9l2.5-1 1 2z" fill="#fff"/></g><g class="ic ic2"><circle cx="140" cy="30" r="8" fill="#0866ff"/><path d="M141.5 34v-4h1.5l.3-1.8h-1.8v-1c0-.5.2-.9.9-.9h1v-1.6l-1.5-.1c-1.6 0-2.5 1-2.5 2.5v1.1h-1.6V30h1.6v4z" fill="#fff"/></g><g class="ic ic3"><circle cx="140" cy="10" r="7" fill="#ff0069"/><rect x="136.5" y="6.5" width="7" height="7" rx="2" fill="none" stroke="#fff" stroke-width="1.3"/><circle cx="140" cy="10" r="1.7" fill="none" stroke="#fff" stroke-width="1.2"/></g><circle class="d" cx="28" cy="88" r="3" fill="#92ef59"/><circle class="d d2" cx="38" cy="88" r="3" fill="#92ef59"/><circle class="d d3" cx="48" cy="88" r="3" fill="#92ef59"/></svg>
