<svg xmlns="http://www.w3.org/2000/svg" viewBox="0 0 160 110"><style>.gear{transform-box:fill-box;transform-origin:center;animation:spin 5s linear infinite}.row{animation:shine 2.4s ease-in-out infinite}.r2{animation-delay:.3s}.r3{animation-delay:.6s}.r4{animation-delay:.9s}@keyframes spin{to{transform:rotate(360deg)}}@keyframes shine{0%,100%{fill:#184332}50%{fill:#92ef59}}@media (prefers-reduced-motion: reduce){*{animation:none!important}}</style><rect x="62" y="18" width="84" height="74" rx="10" fill="#fff" stroke="#184332" stroke-width="3"/><path d="M62 34h84M92 34v58M118 34v58" stroke="#184332" stroke-width="2"/><rect x="70" y="24" width="30" height="5" rx="2.5" fill="#184332"/><g fill="#cfe0d6"><rect x="68" y="42" width="18" height="4" rx="2"/><rect x="68" y="54" width="18" height="4" rx="2"/><rect x="68" y="66" width="18" height="4" rx="2"/><rect x="68" y="78" width="18" height="4" rx="2"/></g><rect class="row" x="98" y="42" width="14" height="4" rx="2" fill="#184332"/><rect class="row r2" x="124" y="54" width="14" height="4" rx="2" fill="#184332"/><rect class="row r3" x="98" y="66" width="14" height="4" rx="2" fill="#184332"/><rect class="row r4" x="124" y="78" width="14" height="4" rx="2" fill="#184332"/><circle cx="40" cy="58" r="26" fill="#92ef59"/><g class="gear"><path transform="translate(40 58)" d="M0-17l4 1 2 5 5-2 4 3-2 5 3 4 5 1v6l-5 1-3 4 2 5-4 4-5-2-2 5-4 1-4-1-2-5-5 2-4-4 2-5-3-4-5-1v-6l5-1 3-4-2-5 4-3 5 2 2-5z" fill="#184332"/><circle cx="40" cy="58" r="7" fill="#92ef59"/></g></svg>
