<svg xmlns="http://www.w3.org/2000/svg" viewBox="0 0 160 110"><path d="M20 94h124" stroke="#184332" stroke-width="3" stroke-linecap="round"/><rect x="30" y="66" width="18" height="28" rx="4" fill="#cfe0d6"/><rect x="56" y="54" width="18" height="40" rx="4" fill="#8fb39f"/><rect x="82" y="40" width="18" height="54" rx="4" fill="#184332"/><rect x="108" y="24" width="18" height="70" rx="4" fill="#92ef59" stroke="#184332" stroke-width="2.5"/><path d="M28 56l26-14 26 4 34-26" stroke="#184332" stroke-width="3" fill="none" stroke-linecap="round" stroke-linejoin="round"/><path d="M104 18l12 2-4 11" stroke="#184332" stroke-width="3" fill="none" stroke-linecap="round" stroke-linejoin="round"/><circle cx="54" cy="42" r="4" fill="#92ef59" stroke="#184332" stroke-width="2"/><circle cx="80" cy="46" r="4" fill="#92ef59" stroke="#184332" stroke-width="2"/><g transform="translate(138 30)"><circle r="12" fill="#fff" stroke="#184332" stroke-width="2.5"/><path d="M0-6l1.8 3.8 4.2.6-3 2.9.7 4.1L0 3.4l-3.7 2 .7-4.1-3-2.9 4.2-.6z" fill="#f5b301"/></g></svg>
